/* XPM */
static char *bitcoin64[] = {
/* columns rows colors chars-per-pixel */
"64 64 144 2 ",
"   c #05A396",
".  c #09A397",
"X  c #05A599",
"o  c #0BA69A",
"O  c #05AA9D",
"+  c #0CA99D",
"@  c #15A69B",
"#  c #1CA79D",
"$  c #12AA9E",
"%  c #1FA89D",
"&  c #23A99F",
"*  c #05AEA1",
"=  c #0BAEA2",
"-  c #13ADA2",
";  c #19AFA4",
":  c #05B2A6",
">  c #0CB1A5",
",  c #06B6AA",
"<  c #09B6A9",
"1  c #04BAAD",
"2  c #14B2A6",
"3  c #1AB2A6",
"4  c #13B4A9",
"5  c #04BFB1",
"6  c #0CBEB1",
"7  c #16BFB3",
"8  c #26ACA2",
"9  c #2DACA2",
"0  c #34AEA4",
"q  c #39AFA6",
"w  c #28B0A6",
"e  c #31B1A7",
"r  c #3AB0A7",
"t  c #32B6AC",
"y  c #3CB2A9",
"u  c #37B8AE",
"i  c #3AB8AF",
"p  c #36BAB0",
"a  c #42B3AB",
"s  c #4BB6AE",
"d  c #51B7AF",
"f  c #44B9B0",
"g  c #4BBAB1",
"h  c #56B7B0",
"j  c #54B8B1",
"k  c #5BBAB3",
"l  c #65BCB5",
"z  c #6ABCB6",
"x  c #6DBEB8",
"c  c #70BDB7",
"v  c #73BFB9",
"b  c #7ABFBA",
"n  c #00C3B6",
"m  c #00C6B9",
"M  c #09C7BB",
"N  c #00CABC",
"B  c #16C2B6",
"V  c #19C3B7",
"C  c #1DC5BA",
"Z  c #2EC0B6",
"A  c #26C6BB",
"S  c #22C9BE",
"D  c #29C8BD",
"F  c #35C4BA",
"G  c #34C9BF",
"H  c #38C9BF",
"J  c #44C7BE",
"K  c #4FC6BE",
"L  c #5BC6BE",
"P  c #54C1B9",
"I  c #65C0BA",
"U  c #6DC3BD",
"Y  c #76C0BA",
"T  c #7CC1BC",
"R  c #00CFC0",
"E  c #0CCFC2",
"W  c #00D3C5",
"Q  c #0FD3C6",
"!  c #00D7C8",
"~  c #00DBCD",
"^  c #09D9CB",
"/  c #10D2C5",
"(  c #1AD4C7",
")  c #1ED6C9",
"_  c #18DBCE",
"`  c #00DFD0",
"'  c #0EDFD1",
"]  c #15DFD2",
"[  c #1BDDD0",
"{  c #2CCDC2",
"}  c #34CCC2",
"|  c #22D0C4",
" . c #2FD5CA",
".. c #22DBCF",
"X. c #2CD9CD",
"o. c #3CD1C7",
"O. c #34D6CC",
"+. c #00E4D5",
"@. c #09E2D4",
"#. c #00E7D8",
"$. c #00EADA",
"%. c #45CEC5",
"&. c #4CCCC3",
"*. c #52CBC3",
"=. c #5BCBC3",
"-. c #4DD0C7",
";. c #6FC7C1",
":. c #66CAC3",
">. c #6CCAC3",
",. c #71C6C0",
"<. c #7FC6C1",
"1. c #83C2BD",
"2. c #83C7C2",
"3. c #8BC5C1",
"4. c #85C8C3",
"5. c #8AC9C4",
"6. c #92C7C3",
"7. c #95C9C5",
"8. c #9ACAC7",
"9. c #9DCCC9",
"0. c #A2CECB",
"q. c #A6D0CD",
"w. c #AAD1CE",
"e. c #AED4D1",
"r. c #B3D6D4",
"t. c #B6D8D6",
"y. c #B8D9D6",
"u. c #BDDCDA",
"i. c #C2DEDC",
"p. c #C6E1DF",
"a. c #CBE3E1",
"s. c #D1E6E5",
"d. c #D4E8E7",
"f. c #D6E9E8",
"g. c #DBECEA",
"h. c #E1EFEE",
"j. c #E3F0EF",
"k. c #E5F1F1",
"l. c #EDF5F5",
"z. c #F0F7F7",
"x. c #F1F8F7",
"c. c #F5FAF9",
"v. c #FFFFFF",
"b. c None",
/* pixels */
"b.b.b.b.b.b.b.b.b.b.b.b.b.b.b.b.b.b.b.b.b.b.b.b.b.b.b.b.b.b.b.b.b.b.b.b.b.b.b.b.b.b.b.b.b.b.b.b.b.b.b.b.b.b.b.b.b.b.b.b.b.b.b.b.",
"b.b.b.b.b.b.b.b.b.b.b.b.b.b.b.b.b.b.b.b.b.b.b.b.b.b.b.b.b.b.b.b.b.b.b.b.b.b.b.b.b.b.b.b.b.b.b.b.b.b.b.b.b.b.b.b.b.b.b.b.b.b.b.b.",
"b.b.b.b.b.b.b.b.b.b.b.b.b.b.b.b.b.b.b.b.b.b.b.b.b.b.b.b.b.$.$.$.$.$.$.$.b.b.b.b.b.b.b.b.b.b.b.b.b.b.b.b.b.b.b.b.b.b.b.b.b.b.b.b.",
"b.b.b.b.b.b.b.b.b.b.b.b.b.b.b.b.b.b.b.b.b.b.b.b.b.b.b.$.$.$.$.$.$.$.$.$.$.b.b.b.b.b.b.b.b.b.b.b.b.b.b.b.b.b.b.b.b.b.b.b.b.b.b.b.",
"b.b.b.b.b.b.b.b.b.b.b.b.b.b.b.b.b.b.b.b.b.b.b.b.b.b.$.$.$.$.$.$.$.$.$.$.$.$.b.b.b.b.b.b.b.b.b.b.b.b.b.b.b.b.b.b.b.b.b.b.b.b.b.b.",
"b.b.b.b.b.b.b.b.b.b.b.b.b.b.b.b.b.b.b.b.b.b.b.b.b.$.$.$.$.$.$.$.$.$.$.$.$.$.$.b.b.b.b.b.b.b.b.b.b.b.b.b.b.b.b.b.b.b.b.b.b.b.b.b.",
"b.b.b.b.b.b.b.b.b.b.b.b.b.b.b.b.b.b.b.b.b.b.b.b.$.$.$.$.$.$.$.$.$.$.$.$.$.$.$.$.b.b.b.b.b.b.b.b.b.b.b.b.b.b.b.b.b.b.b.b.b.b.b.b.",
"b.b.b.b.b.b.b.b.b.b.b.b.b.b.b.b.b.b.b.b.b.b.b.$.$.$.$.$.$.$.$.$.$.$.$.$.$.$.$.$.$.b.b.b.b.b.b.b.b.b.b.b.b.b.b.b.b.b.b.b.b.b.b.b.",
"b.b.b.b.b.b.b.b.b.b.b.b.b.b.b.b.b.b.b.b.b.b.$.$.$.$.$.$.$.$.$.$.$.$.$.$.$.$.$.$.$.#.b.b.b.b.b.b.b.b.b.b.b.b.b.b.b.b.b.b.b.b.b.b.",
"b.b.b.b.b.b.b.b.b.b.b.b.b.b.b.b.b.b.b.b.b.$.$.$.$.$.$.#.$.#.$.$.$.$.$.$.$.$.$.#.$.$.$.b.b.b.b.b.b.b.b.b.b.b.b.b.b.b.b.b.b.b.b.b.",
"b.b.b.b.b.b.b.b.b.b.b.b.b.b.b.b.b.b.b.b.$.$.$.$.#.$.$.$.$.#.$.$.$.$.$.$.$.$.$.$.$.#.$.$.b.b.b.b.b.b.b.b.b.b.b.b.b.b.b.b.b.b.b.b.",
"b.b.b.b.b.b.b.b.b.b.b.b.b.b.b.b.b.b.b.$.$.#.#.#.$.#.$.#.$.#.#.#.$.$.$.$.#.#.#.#.#.$.$.$.$.b.b.b.b.b.b.b.b.b.b.b.b.b.b.b.b.b.b.b.",
"b.b.b.b.b.b.b.b.b.b.b.b.b.b.b.b.b.b.$.#.#.$.#.#.#.#.$.#.#.#.#.$.$.$.$.#.$.#.#.#.$.#.#.#.#.#.b.b.b.b.b.b.b.b.b.b.b.b.b.b.b.b.b.b.",
"b.b.b.b.b.b.b.b.b.b.b.b.b.b.b.b.b.#.$.#.#.#.#.#.#.#.#.#.#.#.#.#.$.$.#.#.#.#.#.#.#.#.#.#.#.#.#.b.b.b.b.b.b.b.b.b.b.b.b.b.b.b.b.b.",
"b.b.b.b.b.b.b.b.b.b.b.b.b.b.b.b.#.#.#.+.#.#.+.#.#.#.#.#.+.#.#.#.$.$.$.$.#.#.#.#.#.#.#.#.#.#.#.#.b.b.b.b.b.b.b.b.b.b.b.b.b.b.b.b.",
"b.b.b.b.b.b.b.b.b.b.b.b.b.b.b.#.#.+.#.#.#.+.#.#.+.#.+.#.#.#.+.#.$.$.$.$.#.#.+.#.#.` #.#.` #.#.#.#.b.b.b.b.b.b.b.b.b.b.b.b.b.b.b.",
"b.b.b.b.b.b.b.b.b.b.b.b.b.b.+.#.+.+.+.+.+.+.#.+.#.#.+.+.#.+.+.+.#.+.+.#.+.#.+.#.+.#.#.#.#.+.#.#.#.+.b.b.b.b.b.b.b.b.b.b.b.b.b.b.",
"b.b.b.b.b.b.b.b.b.b.b.b.b.#.+.+.+.+.+.+.+.+.+.+.@.@.@.@.@.@.+.+.+.@.] ] [ [ _ ..X.X.X.X. .O.O.O.O.[ @.b.b.b.b.b.b.b.b.b.b.b.b.b.",
"b.b.b.b.b.b.b.b.b.b.b.b.+.+.+.+.+.+.+.+.+.#._ =.:.:.:.>.:.:...+.` =.<.2.4.5.5.5.6.6.8.8.9.9.9.0.9.4.-.' b.b.b.b.b.b.b.b.b.b.b.b.",
"b.b.b.b.b.b.b.b.b.b.b.+.+.+.+.+.+.+.+.+.W N J 9.p.a.a.a.s.w.K n 7 <.a.j.j.l.l.l.l.z.x.x.c.c.v.c.c.g.9.-.@.b.b.b.b.b.b.b.b.b.b.b.",
"b.b.b.b.b.b.b.b.b.b.+.+.+.+.+.+.+.+.@.! < : g w.c.v.v.v.v.u.k : 4 T g.v.v.v.v.v.v.v.v.v.v.v.v.v.v.v.g.2._ +.b.b.b.b.b.b.b.b.b.b.",
"b.b.b.b.b.b.b.b.b.` +.+.` ` ` ` ` ~ +.W > : i q.v.v.v.v.v.p.k : 4 b g.v.v.v.v.v.v.v.v.v.v.v.v.v.v.v.x.9. .` ` b.b.b.b.b.b.b.b.b.",
"b.b.b.b.b.b.b.b.+.` ` +.` +.` +.` +.+.W < : i q.c.v.v.v.v.i.k < 4 Y d.v.v.v.v.v.v.v.v.v.v.v.v.v.v.v.v.0.o.~ +.+.b.b.b.b.b.b.b.b.",
"b.b.b.b.b.b.b.+.~ +.` ` ` ` ` ` +.~ +.W , : u 9.c.v.v.v.v.i.l > > v s.v.v.v.v.v.v.v.v.v.v.v.v.v.v.v.v.w.&.+.~ ~ ~ b.b.b.b.b.b.b.",
"b.b.b.b.b.b.+.+.~ +.~ ` ` ` ` +.~ ` ` W : : t 9.c.v.v.v.v.p.z < > x i.k.g.g.g.g.d.d.s.a.a.a.l.v.v.v.v.r.&.` ` ` ` ~ b.b.b.b.b.b.",
"b.b.b.b.b.` ~ ~ ~ ` ~ ` ` ` ~ ` ~ ` ` ! : : t 9.c.v.v.v.v.a.z > : g 1.1.1.T T Y v c x x x 1.g.v.v.v.v.t.&.~ ~ ~ ~ ` ~ b.b.b.b.b.",
"b.b.b.b.~ ` ~ ~ ~ ` ~ ` ` ~ ~ ~ ` ` ` W : * t 8.x.v.v.v.v.a.z > * > 3 3 3 3 3 2 ; 2 2 > 3 Y f.v.v.v.v.t.&.~ ~ ` ~ ~ ~ ~ b.b.b.b.",
"b.b.b.~ ~ ~ ~ ~ ~ ~ ~ ~ ~ ~ ~ ) o.%.%.K g g l 7.z.v.v.v.v.s.U 6 1 1 1 1 1 1 5 n n n , = 2 c d.v.v.v.v.y.*.~ ~ ` ~ ~ ~ ~ ~ b.b.b.",
"b.b.b.~ ~ ~ ~ ~ ~ ~ ` ~ ~ | =.4.q.q.w.e.e.r.r.u.c.v.v.v.v.s.;.^ W ( %.&.&.*.*.=.=.=.l l z 1.s.v.v.v.v.y.&.~ ~ ! ~ ~ ! ~ ~ ~ b.b.",
"b.b.~ ~ ~ ~ ~ ~ ~ ~ ~ N H T r.g.c.c.v.v.v.v.v.v.v.v.v.v.v.d.,.E N L 9.r.r.y.y.u.i.i.p.a.a.a.l.v.v.v.v.y.*.! ! ~ ! ! ~ ~ ~ ~ b.b.",
"b.b.~ ! ~ ! ~ ~ ~ ~ n t 1.p.c.v.v.v.v.v.v.v.v.v.v.v.v.v.v.f.T 2 > l u.v.v.v.v.v.v.v.v.v.v.v.v.v.v.v.v.y.*.! ~ ! ! ~ ~ ! ! ~ ~ b.",
"b.b.~ ~ ~ ~ ~ ! ! 1 + l p.v.v.v.v.v.v.v.v.v.v.v.v.v.v.v.v.g.T ; * h u.v.v.v.v.v.v.v.v.v.v.v.v.v.v.v.v.t.&.! ! ! ! ! ! ! ! ! ! b.",
"b.b.~ ! ~ ! ! ~ m * - b g.v.v.v.v.v.v.v.v.v.v.v.v.v.v.v.v.g.T ; = j u.v.v.v.v.v.v.v.v.v.v.v.v.v.v.v.l.9.} ! ! ! ! ! ! ! ! ! ! b.",
"b.b.! ! ! ! ! ! 5 O ; b g.v.v.v.v.v.v.v.v.v.v.v.v.c.v.c.c.f.1.; O d r.v.v.v.v.v.v.v.v.v.v.v.v.v.v.l.y.;.Q ! ! ! ! W ! W W ! W b.",
"b.b.! ! ! ! ! ! , O ; v g.v.v.v.v.x.u.r.t.r.e.e.w.w.q.0.0.8.z - O d r.v.v.v.v.v.c.p.u.i.u.u.y.t.e.8.,.| ! W W ! W ! W ! W ! b.b.",
"b.b.! W ! W W ! , O - v g.v.v.v.v.l.6.l s s s s s s i y i { B O O d r.v.v.v.v.v.z.7.z h h h d d s G / W W ! W W W W W W W W b.b.",
"b.b.b.W W ! W ! , O - c d.v.v.v.v.l.7.w O O O O O * * * n W m + O s e.v.v.v.v.v.x.8.e + + + O : n R W W W W W W W W W W W b.b.b.",
"b.b.b.b.W W W W , O $ c s.v.v.v.v.z.7.F B B B V V C A S { { V O O s e.c.v.v.v.v.c.9.Z n n n m N W W W W W W W W W W W W b.b.b.b.",
"b.b.b.b.b.W W W 1 + + x s.v.v.v.v.x.9.1.2.2.4.4.4.5.5.7.7.7.x ; X s w.v.v.v.v.v.c.9.D W W W W W W W W W R W W W W R W b.b.b.b.b.",
"b.b.b.b.b.b.W W , . + z a.v.v.v.v.v.g.g.h.h.h.h.l.l.l.l.z.h.5.8 X y q.v.v.v.v.v.c.9.H W R W N W R R R R R R R R R W b.b.b.b.b.b.",
"b.b.b.b.b.b.b.W 1 . + z a.v.v.v.v.v.v.v.v.v.v.v.v.v.v.v.v.l.6.8 X r q.c.v.v.v.v.c.0.H W R W R W N W W N W N W N R b.b.b.b.b.b.b.",
"b.b.b.b.b.b.b.b.< X o l p.v.v.v.v.v.v.v.v.v.v.v.v.v.v.v.v.z.7.9 X r q.c.v.v.v.v.v.0.} N R R R R W W N W N W N W b.b.b.b.b.b.b.b.",
"b.b.b.b.b.b.b.b.b.X . k r.v.v.v.v.v.v.v.v.v.v.v.v.v.v.v.v.x.8.9 X r 9.c.v.v.v.v.v.q.J N R R R R N W W N W N R b.b.b.b.b.b.b.b.b.",
"b.b.b.b.b.b.b.b.b.b.X 8 1.p.v.v.v.v.v.v.v.v.v.v.v.v.v.v.v.x.8.0   r 9.c.v.v.v.v.v.e.J R N R N R N N N N W N b.b.b.b.b.b.b.b.b.b.",
"b.b.b.b.b.b.b.b.b.b.b.. r 1.i.k.z.z.x.l.l.l.k.j.j.h.g.f.s.a.6.0   9 8.l.c.c.x.x.k.w.J N N R R N N W N N N b.b.b.b.b.b.b.b.b.b.b.",
"b.b.b.b.b.b.b.b.b.b.b.b.. 9 z 1.6.8.7.6.6.5.5.1.1.b b b c ;.k -   & 1.0.9.9.8.8.8.1.H R N N N R N N N N b.b.b.b.b.b.b.b.b.b.b.b.",
"b.b.b.b.b.b.b.b.b.b.b.b.b.  o & 9 0 9 9 9 & & & ; # @ @ = M m X   . 8 q q 0 0 9 Z S N N R N R N N N W b.b.b.b.b.b.b.b.b.b.b.b.b.",
"b.b.b.b.b.b.b.b.b.b.b.b.b.b.  X X X X O O O O O * : * : 5 R N * X X X   X X   * m N N N N N N N N N b.b.b.b.b.b.b.b.b.b.b.b.b.b.",
"b.b.b.b.b.b.b.b.b.b.b.b.b.b.b.n n m m m m m m N N N m N N N N N n n n n n n n m N N N N N N N N N b.b.b.b.b.b.b.b.b.b.b.b.b.b.b.",
"b.b.b.b.b.b.b.b.b.b.b.b.b.b.b.b.N N N m N N N N N N N N N N N m m m N N N N N N N m N N N N m N b.b.b.b.b.b.b.b.b.b.b.b.b.b.b.b.",
"b.b.b.b.b.b.b.b.b.b.b.b.b.b.b.b.b.N N N N N N N m N N m N N N N N m m N m N N N m N N m m m N b.b.b.b.b.b.b.b.b.b.b.b.b.b.b.b.b.",
"b.b.b.b.b.b.b.b.b.b.b.b.b.b.b.b.b.b.m m m m m m N N m m m N n m N m N m m m m m m m m m N m b.b.b.b.b.b.b.b.b.b.b.b.b.b.b.b.b.b.",
"b.b.b.b.b.b.b.b.b.b.b.b.b.b.b.b.b.b.b.N m m m m m m N m m m N m m m m m m m m m m m N m m b.b.b.b.b.b.b.b.b.b.b.b.b.b.b.b.b.b.b.",
"b.b.b.b.b.b.b.b.b.b.b.b.b.b.b.b.b.b.b.b.m m m m m m m m m m m m m m m m m m m m m m m m b.b.b.b.b.b.b.b.b.b.b.b.b.b.b.b.b.b.b.b.",
"b.b.b.b.b.b.b.b.b.b.b.b.b.b.b.b.b.b.b.b.b.m m n n n m m n n m m m m m m m m m m m n m b.b.b.b.b.b.b.b.b.b.b.b.b.b.b.b.b.b.b.b.b.",
"b.b.b.b.b.b.b.b.b.b.b.b.b.b.b.b.b.b.b.b.b.b.m m m m m n m m m n n n m m n m n n m m b.b.b.b.b.b.b.b.b.b.b.b.b.b.b.b.b.b.b.b.b.b.",
"b.b.b.b.b.b.b.b.b.b.b.b.b.b.b.b.b.b.b.b.b.b.b.n m n n m n m m n n m m n n m n n m b.b.b.b.b.b.b.b.b.b.b.b.b.b.b.b.b.b.b.b.b.b.b.",
"b.b.b.b.b.b.b.b.b.b.b.b.b.b.b.b.b.b.b.b.b.b.b.b.n n m n m n n n m n n n n n n m b.b.b.b.b.b.b.b.b.b.b.b.b.b.b.b.b.b.b.b.b.b.b.b.",
"b.b.b.b.b.b.b.b.b.b.b.b.b.b.b.b.b.b.b.b.b.b.b.b.b.n n n n n n n n n n n n n n b.b.b.b.b.b.b.b.b.b.b.b.b.b.b.b.b.b.b.b.b.b.b.b.b.",
"b.b.b.b.b.b.b.b.b.b.b.b.b.b.b.b.b.b.b.b.b.b.b.b.b.b.n n n n n n n n n n n n b.b.b.b.b.b.b.b.b.b.b.b.b.b.b.b.b.b.b.b.b.b.b.b.b.b.",
"b.b.b.b.b.b.b.b.b.b.b.b.b.b.b.b.b.b.b.b.b.b.b.b.b.b.b.n n n n n 5 n n n n b.b.b.b.b.b.b.b.b.b.b.b.b.b.b.b.b.b.b.b.b.b.b.b.b.b.b.",
"b.b.b.b.b.b.b.b.b.b.b.b.b.b.b.b.b.b.b.b.b.b.b.b.b.b.b.b.n n n 5 n n n n b.b.b.b.b.b.b.b.b.b.b.b.b.b.b.b.b.b.b.b.b.b.b.b.b.b.b.b.",
"b.b.b.b.b.b.b.b.b.b.b.b.b.b.b.b.b.b.b.b.b.b.b.b.b.b.b.b.b.b.n n 5 n b.b.b.b.b.b.b.b.b.b.b.b.b.b.b.b.b.b.b.b.b.b.b.b.b.b.b.b.b.b.",
"b.b.b.b.b.b.b.b.b.b.b.b.b.b.b.b.b.b.b.b.b.b.b.b.b.b.b.b.b.b.b.b.b.b.b.b.b.b.b.b.b.b.b.b.b.b.b.b.b.b.b.b.b.b.b.b.b.b.b.b.b.b.b.b."
};
