/* XPM */
static char *bitcoin16[] = {
/* columns rows colors chars-per-pixel */
"16 16 113 2 ",
"   c #31B5AB",
".  c #3BB7AE",
"X  c #31BBB1",
"o  c #33BFB5",
"O  c #5CBFB7",
"+  c #00C1B4",
"@  c #00C2B5",
"#  c #00C3B6",
"$  c #00C4B6",
"%  c #00C4B7",
"&  c #00C6B9",
"*  c #00C7BA",
"=  c #08C5B8",
"-  c #00C8BB",
";  c #00CBBD",
":  c #00CBBE",
">  c #3EC2B8",
",  c #42C1B8",
"<  c #45C6BD",
"1  c #4BC4BB",
"2  c #5AC7BF",
"3  c #00CEC0",
"4  c #04CEC1",
"5  c #00D2C3",
"6  c #00D2C4",
"7  c #00D3C5",
"8  c #00D5C7",
"9  c #0CD4C7",
"0  c #00D7C9",
"q  c #00D8CA",
"w  c #00D9CA",
"e  c #00DACB",
"r  c #00DACC",
"t  c #00DCCD",
"y  c #00DDCE",
"u  c #00DECF",
"i  c #0ADCCE",
"p  c #13D0C3",
"a  c #1CD5C8",
"s  c #1ADCCF",
"d  c #39CCC2",
"f  c #22D7CB",
"g  c #23DACD",
"h  c #23DBCE",
"j  c #31DBD0",
"k  c #3DDCD1",
"l  c #00E1D2",
"z  c #00E3D4",
"x  c #00E4D5",
"c  c #00E5D6",
"v  c #00E6D7",
"b  c #00E7D7",
"n  c #00E7D8",
"m  c #00E9DA",
"M  c #00EBDB",
"N  c #00ECDC",
"B  c #00EDDD",
"V  c #65C8C1",
"C  c #65C9C2",
"Z  c #61CCC5",
"A  c #69C9C2",
"S  c #6CCAC3",
"D  c #6ECDC6",
"F  c #70CAC4",
"G  c #70CCC5",
"H  c #75CCC6",
"J  c #7CC9C3",
"K  c #7FCDC7",
"L  c #75D0C9",
"P  c #77D5CE",
"I  c #67DED6",
"U  c #78DAD4",
"Y  c #55E0D7",
"T  c #6AE3DB",
"R  c #6FE3DB",
"E  c #74E3DC",
"W  c #85CFCA",
"Q  c #88D3CD",
"!  c #8FD7D2",
"~  c #83DCD6",
"^  c #92D5D0",
"/  c #94DAD5",
"(  c #A0D6D2",
")  c #ADDFDB",
"_  c #96E1DC",
"`  c #B2E0DD",
"'  c #BAE1DE",
"]  c #B9E2DF",
"[  c #B4E5E2",
"{  c #BAE6E2",
"}  c #C6E7E5",
"|  c #CEEFEC",
" . c #D2EAE8",
".. c #D6EDEB",
"X. c #DAF2F0",
"o. c #DDF2F1",
"O. c #DFF3F2",
"+. c #E1F2F0",
"@. c #E2F2F1",
"#. c #E6F3F2",
"$. c #E8F4F3",
"%. c #E9F4F3",
"&. c #F0F5F5",
"*. c #F4F8F8",
"=. c #F9FAFA",
"-. c #FBFBFB",
";. c #FDFBFB",
":. c #FEFCFC",
">. c #FEFDFD",
",. c #FFFDFD",
"<. c #FFFEFE",
"1. c white",
"2. c None",
/* pixels */
"2.2.2.2.2.2.2.N N 2.2.2.2.2.2.2.",
"2.2.2.2.2.2.N N N N 2.2.2.2.2.2.",
"2.2.2.2.2.m m m m m m 2.2.2.2.2.",
"2.2.2.2.c m c n m c c c 2.2.2.2.",
"2.2.2.c z s Y j k T R E I 2.2.2.",
"2.2.l l e < &.Q ^ ;.=.;.| h 2.2.",
"2.y y i a 2 *.! , D A ' O.g y 2.",
"r e p _ X.#.<./ Z [ { +.O.f e e ",
"0 7 o %.+.` ) V W <...{ ~ 9 7 8 ",
"2.4 X %.} F L 1 K <.P = 4 5 7 2.",
"2.2.   .<.=.:.( J <.U : : 4 2.2.",
"2.2.2.O F S V > . H d ; : 2.2.2.",
"2.2.2.2.@ @ $ * @ @ * ; 2.2.2.2.",
"2.2.2.2.2.- * * * * * 2.2.2.2.2.",
"2.2.2.2.2.2.$ @ @ $ 2.2.2.2.2.2.",
"2.2.2.2.2.2.2.@ @ 2.2.2.2.2.2.2."
};
