/* XPM */
static char *bitcoin32[] = {
/* columns rows colors chars-per-pixel */
"32 32 115 2 ",
"   c #09A79B",
".  c #16A99E",
"X  c #1DA89D",
"o  c #03AEA1",
"O  c #14AFA4",
"+  c #1DADA2",
"@  c #03B3A6",
"#  c #07B6AA",
"$  c #0BB7AA",
"%  c #05B9AC",
"&  c #08B8AB",
"*  c #15B2A6",
"=  c #17B5AA",
"-  c #19B7AB",
";  c #17B8AC",
":  c #1BB9AD",
">  c #07BCB0",
",  c #0CBFB3",
"<  c #24ACA2",
"1  c #2BAEA4",
"2  c #21B0A6",
"3  c #2EB0A6",
"4  c #26B7AC",
"5  c #23B8AD",
"6  c #2EB8AE",
"7  c #33B5AB",
"8  c #3FB3AA",
"9  c #35B9AF",
"0  c #2DBCB2",
"q  c #3CB9B0",
"w  c #46B5AD",
"e  c #47B8AF",
"r  c #44BEB5",
"t  c #4CBAB2",
"y  c #50BAB2",
"u  c #61BDB6",
"i  c #67BEB8",
"p  c #00C3B6",
"a  c #00C6B9",
"s  c #00CABD",
"d  c #19C4B9",
"f  c #1BC9BD",
"g  c #25CABF",
"h  c #6AC4BD",
"j  c #72C4BE",
"k  c #78C5BF",
"l  c #00CFC1",
"z  c #1FCCC1",
"x  c #00D2C4",
"c  c #00D6C8",
"v  c #00DBCC",
"b  c #0ED9CB",
"n  c #17D2C6",
"m  c #1CDBCE",
"M  c #00DFD0",
"N  c #13DED1",
"B  c #1BDDD0",
"V  c #21CCC0",
"C  c #2DCFC4",
"Z  c #39CFC4",
"A  c #20D1C4",
"S  c #2DD1C6",
"D  c #26D6CA",
"F  c #2DD4C9",
"G  c #20DBCF",
"H  c #00E4D5",
"J  c #09E1D3",
"K  c #00E7D8",
"L  c #00EADB",
"P  c #43CDC3",
"I  c #50D1C8",
"U  c #5BD5CC",
"Y  c #66CBC4",
"T  c #70C6C0",
"R  c #7BC7C1",
"E  c #71CBC4",
"W  c #78C8C2",
"Q  c #73CFC8",
"!  c #82C9C4",
"~  c #88CBC6",
"^  c #91CDC8",
"/  c #84D5CF",
"(  c #92D1CD",
")  c #9BD2CE",
"_  c #8BD6D1",
"`  c #9ED4D0",
"'  c #95D9D4",
"]  c #98DCD7",
"[  c #A1D3CF",
"{  c #A4D5D1",
"}  c #ACD7D4",
"|  c #A4DAD6",
" . c #AAD8D5",
".. c #ACDDD9",
"X. c #B1DAD7",
"o. c #B4DEDB",
"O. c #BBDEDC",
"+. c #B3E0DD",
"@. c #BBE1DE",
"#. c #BEE3E0",
"$. c #C1E0DE",
"%. c #C4E4E1",
"&. c #CCE6E4",
"*. c #D2E9E7",
"=. c #D5EAE8",
"-. c #DCEDEB",
";. c #E3EEEE",
":. c #E2F0EF",
">. c #E5F1F0",
",. c #EBF4F3",
"<. c #F2F7F7",
"1. c #F2F8F7",
"2. c #F5F9F9",
"3. c #FEFEFE",
"4. c None",
/* pixels */
"4.4.4.4.4.4.4.4.4.4.4.4.4.4.4.4.4.4.4.4.4.4.4.4.4.4.4.4.4.4.4.4.",
"4.4.4.4.4.4.4.4.4.4.4.4.4.4.L L L L 4.4.4.4.4.4.4.4.4.4.4.4.4.4.",
"4.4.4.4.4.4.4.4.4.4.4.4.4.L L L L L L 4.4.4.4.4.4.4.4.4.4.4.4.4.",
"4.4.4.4.4.4.4.4.4.4.4.4.L L L L L L L L 4.4.4.4.4.4.4.4.4.4.4.4.",
"4.4.4.4.4.4.4.4.4.4.4.L L L L L L L L L L 4.4.4.4.4.4.4.4.4.4.4.",
"4.4.4.4.4.4.4.4.4.4.L K L L K K L L K L K K 4.4.4.4.4.4.4.4.4.4.",
"4.4.4.4.4.4.4.4.4.K K K K K K K L L L K K K K 4.4.4.4.4.4.4.4.4.",
"4.4.4.4.4.4.4.4.H K K K K K K H L L L K K K K K 4.4.4.4.4.4.4.4.",
"4.4.4.4.4.4.4.H H H H H H J J H H N N N B B G G m 4.4.4.4.4.4.4.",
"4.4.4.4.4.4.H H H H c I ' ] _ A Z | +.+.#.#.%.%.+.U 4.4.4.4.4.4.",
"4.4.4.4.4.H H H H v $ W 2.3.-.9 t ,.3.3.3.3.3.3.3.+.m 4.4.4.4.4.",
"4.4.4.4.v H v M v c # T 2.3.-.q r >.3.3.3.3.3.3.3.&.D M 4.4.4.4.",
"4.4.4.v H v v H H c @ h 2.3.-.q 9 [  .{ ) ) { ,.3.=.F v v 4.4.4.",
"4.4.v v v v v b D C 6 k 2.3.:.r # ; ; ; ; * y >.3.=.F v v v 4.4.",
"4.v v v v c Z ' %.&.*.-.3.3.>.P g Q / / _ ( { ,.3.=.S v c v v 4.",
"4.v v v x 0 O.3.3.3.3.3.3.3.>.t 9 =.3.3.3.3.3.3.3.=.S v c v c 4.",
"4.c v c % t ,.3.3.3.2.3.3.2.;.y 3 =.3.3.3.3.3.2.2. .n c c c c 4.",
"4.c c x @ t >.3.1.{ ! R k j Y 4 3 =.3.3.*.^ ~ ! E S c x x x c 4.",
"4.4.x x @ w >.3.<.h = - - : f # 3 &.3.3.@.5 # > s x x x x x 4.4.",
"4.4.4.l @ w ;.3.2.o.....o.@.o.t 1 &.3.3.%.z x x x x x l x 4.4.4.",
"4.4.4.4.o w -.3.3.3.3.3.3.3.1.u < %.3.3.%.V l l l x l l 4.4.4.4.",
"4.4.4.4.4.1 o.3.3.3.3.3.3.3.2.i < %.3.3.%.C l s s l s 4.4.4.4.4.",
"4.4.4.4.4.4.w ) O.O.o.X. .{ ) t X ) $.$.{ g s l s s 4.4.4.4.4.4.",
"4.4.4.4.4.4.4.. < + + + O * > %   < < 2 d s s s s 4.4.4.4.4.4.4.",
"4.4.4.4.4.4.4.4.p a a a a s s a p p p a s s s s 4.4.4.4.4.4.4.4.",
"4.4.4.4.4.4.4.4.4.s a s s a s a a s a a a s s 4.4.4.4.4.4.4.4.4.",
"4.4.4.4.4.4.4.4.4.4.a a a a a a a a a a a a 4.4.4.4.4.4.4.4.4.4.",
"4.4.4.4.4.4.4.4.4.4.4.a a a a a a a a a a 4.4.4.4.4.4.4.4.4.4.4.",
"4.4.4.4.4.4.4.4.4.4.4.4.a p p p p a p p 4.4.4.4.4.4.4.4.4.4.4.4.",
"4.4.4.4.4.4.4.4.4.4.4.4.4.p p p p p p 4.4.4.4.4.4.4.4.4.4.4.4.4.",
"4.4.4.4.4.4.4.4.4.4.4.4.4.4.p p p p 4.4.4.4.4.4.4.4.4.4.4.4.4.4.",
"4.4.4.4.4.4.4.4.4.4.4.4.4.4.4.4.4.4.4.4.4.4.4.4.4.4.4.4.4.4.4.4."
};
